# xmcd
# 
# Track frame offsets:
#     150
#     18101
#     40079
#     60447
#     78270
#     94664
#     109189
#     127237
#     147645
#     164357
#     177501
#     194546
# 
# Disc length: 2827
# 
# Revision: 3
# Processed by: cddbd v1.5.2PL0 Copyright (c) Steve Scherf et al.
# Submitted via: fre:ac v1.0.31
# 
DISCID=a30b090c
DTITLE=Trish Thuy Trang - ASCD174-Siren
DYEAR=2002
DGENRE=Pop
TTITLE0=Does He Know
TTITLE1=Siren
TTITLE2=Paper Lantern Night
TTITLE3=If You Only Knew (duet with Asia 4)
TTITLE4=Crossing Over
TTITLE5=Letter From The Moon
TTITLE6=Only Time Will Tell
TTITLE7=Sway (DJ Slim's Bumpin' Mix)
TTITLE8=The Day You Went Away (duet with Jacqueline Thuy Tram)
TTITLE9=Thuong Anh (feat. Spencer from Asia 4)
TTITLE10=Some Girls
TTITLE11=Siren (DJ Slim's Dance Remix)
EXTD=YEAR: 2002
EXTT0=
EXTT1=
EXTT2=
EXTT3=
EXTT4=
EXTT5=
EXTT6=
EXTT7=
EXTT8=
EXTT9=
EXTT10=
EXTT11=
PLAYORDER=
